<?xml version="1.0" standalone="no"?>
<!DOCTYPE svg PUBLIC "-//W3C//DTD SVG 20010904//EN"
 "http://www.w3.org/TR/2001/REC-SVG-20010904/DTD/svg10.dtd">
<svg version="1.0" xmlns="http://www.w3.org/2000/svg"
 width="520.000000pt" height="520.000000pt" viewBox="0 0 520.000000 520.000000"
 preserveAspectRatio="xMidYMid meet">
<metadata>
Created by potrace 1.14, written by Peter Selinger 2001-2017
</metadata>
<g transform="translate(0.000000,520.000000) scale(0.100000,-0.100000)"
fill="#000000" stroke="none">
<path d="M2527 4994 c-1 -1 -47 -4 -102 -8 -124 -8 -148 -11 -277 -36 -190
-38 -409 -110 -550 -181 -32 -16 -58 -27 -58 -23 0 3 -12 -3 -27 -14 -16 -11
-31 -20 -35 -21 -22 -3 -252 -158 -343 -230 -76 -60 -359 -339 -361 -356 -1
-6 -29 -47 -63 -92 -33 -44 -61 -85 -61 -90 0 -5 -11 -20 -25 -33 -14 -13 -23
-25 -21 -27 5 -5 -78 -153 -97 -175 -9 -9 -13 -18 -11 -21 3 -3 -9 -34 -25
-69 -17 -36 -31 -70 -31 -76 0 -7 -5 -12 -12 -12 -6 0 -9 -3 -5 -6 3 -3 -6
-38 -20 -78 -26 -72 -71 -224 -78 -261 -1 -11 -10 -58 -18 -105 -9 -47 -19
-119 -23 -160 -3 -41 -10 -81 -14 -89 -4 -8 -5 -31 -3 -51 4 -31 -1 -45 -36
-91 -80 -106 -135 -246 -132 -339 3 -95 17 -114 19 -26 2 82 7 113 34 184 22
58 94 182 107 182 4 0 8 -26 9 -57 1 -31 4 -59 6 -61 3 -2 -4 -28 -14 -58 -11
-30 -17 -54 -15 -54 3 0 1 -10 -4 -23 -5 -13 -12 -48 -16 -77 -4 -29 -9 -62
-11 -74 -2 -12 -7 -66 -10 -120 -3 -55 -7 -103 -10 -107 -7 -11 -18 -147 -18
-214 0 -77 12 -164 30 -218 4 -12 8 -241 9 -509 0 -268 4 -490 8 -494 5 -5
107 -8 172 -5 19 1 20 9 23 233 2 128 8 238 13 244 5 6 6 14 2 17 -3 4 -1 7 5
7 6 0 21 -19 33 -41 105 -206 358 -443 589 -551 127 -59 176 -69 283 -60 26 3
12 19 -15 20 -28 0 -150 56 -199 91 -19 14 -55 43 -80 65 -51 44 -39 43 76 -8
44 -19 98 -38 120 -42 22 -3 44 -8 48 -11 19 -11 148 -2 187 13 40 16 43 16
83 -4 45 -22 184 -83 197 -87 3 0 41 -13 85 -27 158 -52 212 -66 310 -83 55
-9 108 -21 118 -26 10 -5 22 -7 27 -4 17 10 147 -6 147 -19 1 -6 9 -40 18 -76
10 -36 18 -71 19 -78 4 -25 26 -35 93 -41 95 -8 366 -8 438 2 97 12 169 24
197 33 9 3 26 7 39 9 12 2 47 12 78 21 31 10 58 18 61 19 26 5 128 44 180 67
100 45 124 57 275 144 77 44 175 97 218 118 42 20 77 41 77 47 0 6 4 8 8 5 5
-3 29 41 54 96 53 116 56 160 19 242 l-23 49 25 24 c23 23 26 24 43 9 11 -8
75 -59 144 -113 155 -121 148 -115 171 -135 10 -10 19 -15 19 -11 0 4 6 0 13
-8 6 -9 44 -40 82 -69 39 -30 72 -57 73 -62 2 -4 9 -8 16 -8 10 0 13 139 15
673 1 655 6 767 33 767 5 0 6 4 3 10 -3 5 -1 29 6 52 6 24 12 49 12 56 0 6 3
12 6 12 3 0 6 12 7 28 2 47 15 127 22 132 4 3 7 28 7 55 0 39 3 49 15 47 11
-3 11 1 -3 16 -9 10 -14 22 -10 26 16 15 18 243 4 360 -5 39 -9 80 -9 91 0 11
-7 50 -15 88 -8 40 -10 67 -4 67 5 0 4 7 -3 15 -7 9 -16 32 -21 53 -4 20 -10
47 -13 60 -3 12 -8 31 -10 41 -11 49 -91 271 -122 337 -19 41 -34 76 -34 78 0
10 -98 180 -144 251 -74 112 -199 266 -288 355 -42 41 -83 92 -91 113 -9 20
-14 37 -12 37 9 0 -49 148 -82 210 -57 106 -136 197 -228 260 -51 35 -66 39
-89 28 -16 -9 -17 -17 -11 -66 7 -62 9 -95 7 -129 -2 -21 -3 -22 -39 -6 -44
18 -131 46 -153 48 -17 1 -194 68 -250 93 -19 9 -44 16 -55 17 -40 2 -117 28
-122 42 -4 9 -9 10 -17 3 -8 -6 -32 -6 -72 1 -32 5 -75 12 -94 15 -19 2 -46 7
-60 10 -14 3 -42 6 -62 6 -21 1 -38 4 -38 7 0 5 -237 9 -243 5z m-2307 -3234
c0 -5 -2 -10 -4 -10 -3 0 -8 5 -11 10 -3 6 -1 10 4 10 6 0 11 -4 11 -10z
m4375 -395 c0 -119 -2 -144 -13 -140 -20 7 -111 79 -112 87 0 5 121 198 125
198 0 0 0 -65 0 -145z"/>
<path d="M1370 480 c0 -5 5 -10 10 -10 6 0 10 5 10 10 0 6 -4 10 -10 10 -5 0
-10 -4 -10 -10z"/>
</g>
</svg>
