<svg xmlns="http://www.w3.org/2000/svg" width="320" height="220" viewBox="0 0 320 220">
    <g fill="none" fill-rule="evenodd" stroke="#9D9D9D" stroke-linecap="round" stroke-linejoin="round" stroke-width="4">
        <path d="M82 139.585L131.124 189H239V81.753L189.323 32 82 32.69z"/>
        <path d="M123 58h57.413L197 75"/>
        <path d="M132.403 148.347l-8.385-.678V164L91 131.286h90.975L182 41"/>
        <path d="M123 147l-17-16.978V73M172 122.5h-66M149 164h65v-64"/>
        <path d="M197 132h-16v16M171.917 74.067l.184-15.503M82 33l49.126 50H172"/>
        <path d="M106 41l33.035 33.358h32.874v49.347L222 174V99.363h-25.065v32.485l16.48 16.306"/>
        <path d="M181 41l33 33.374h-17.164v23.768M107 40.265l73 .47M132 189v-41h16.41v25.84H222M91 131V58l32.04 31.587V122h25.634V98.215h22.882M131 82v40M239 82.5h-41"/>
        <path d="M148 148h33.052L197 164"/>
    </g>
</svg>
