<svg xmlns="http://www.w3.org/2000/svg" width="320" height="220" viewBox="0 0 320 220">
    <g fill="none" fill-rule="evenodd">
        <path stroke="#9A9A9A" stroke-linecap="round" stroke-linejoin="round" stroke-width="4" d="M198.916 123.426l-1.64-1.639a.45.45 0 0 1 0-.633l1.64-1.639a3.317 3.317 0 0 0 0-4.684l-1.64-1.639a.45.45 0 0 1 0-.632l1.64-1.638a3.316 3.316 0 0 0 0-4.683l-1.64-1.639a.452.452 0 0 1 0-.634l1.638-1.638a3.309 3.309 0 0 0 .003-4.68l-2.091-2.092a3.31 3.31 0 0 0-3.57-.733l-5.82 2.327a314.42 314.42 0 0 1-19.45 1.212c-2.382.078-4.77.127-7.165.151-.12.001-.241.004-.362.004-2.411.021-4.826.014-7.242-.02l-.248-.004a319.581 319.581 0 0 1-7.332-.194l-.176-.006c-2.476-.096-4.95-.22-7.412-.374l-.12-.007-2.062-.128.002.006a310.118 310.118 0 0 1-7.9-.64l-5.864-2.347a3.237 3.237 0 0 0-3.49.718l-2.18 2.18a3.241 3.241 0 0 0 0 4.577l1.747 1.745a.371.371 0 0 1-.001.526l-1.745 1.744a3.24 3.24 0 0 0 0 4.577l1.746 1.746a.372.372 0 0 1 0 .527l-1.746 1.746a3.24 3.24 0 0 0 0 4.577l1.746 1.745a.371.371 0 0 1 0 .525l-1.745 1.746a3.24 3.24 0 0 0 0 4.577l2.178 2.18a3.23 3.23 0 0 0 3.49.714l5.864-2.344a316.554 316.554 0 0 1 19.393-1.21c2.44-.08 4.887-.132 7.336-.156l.185-.002c2.472-.02 4.948-.014 7.423.022l.07.001c5.018.074 10.034.266 15.01.58l2.154.133-.003-.009c2.637.183 5.27.392 7.9.642l5.819 2.328a3.307 3.307 0 0 0 3.569-.735l2.094-2.094a3.318 3.318 0 0 0-.003-4.683z"/>
        <path stroke="#9A9A9A" stroke-width="4" d="M101.178 27.568L85.506 57.525M116.672 28.029L101 57.985"/>
        <path stroke="#9A9A9A" stroke-linecap="round" stroke-linejoin="round" stroke-width="4" d="M260.346 55.379a2.358 2.358 0 0 0-1.252-2.377l-1.133-.595 1.739-.911a2.298 2.298 0 0 0 1.234-2.038 2.312 2.312 0 0 0-1.234-2.043l-1.742-.914 1.74-.913a2.298 2.298 0 0 0 1.232-2.042 2.297 2.297 0 0 0-1.234-2.04l-1.742-.913 1.74-.912a2.305 2.305 0 0 0-.001-4.081l-1.74-.914 1.292-.677a2.272 2.272 0 0 0 1.21-2.298 2.284 2.284 0 0 0-1.715-1.96c-4.015-1.032-6.851-1.198-8.43-.5l-10.69 7.066c-2.342-4.431-6.758-7.89-12.246-9.832v-.004l-.28-.09a30.069 30.069 0 0 0-5.13-1.255c-.136-.021-.273-.04-.41-.058a30.811 30.811 0 0 0-1.744-.197c-.193-.018-.384-.037-.576-.05a32.576 32.576 0 0 0-2.2-.082 32.031 32.031 0 0 0-2.35.093c-.175.012-.35.029-.523.044-.76.066-1.512.155-2.253.274h-.004a29.57 29.57 0 0 0-5.823 1.546l-.045.015v.002c-5.117 1.953-9.24 5.25-11.502 9.428l-8.915-6.614-.27-.161c-1.676-.746-4.59-.633-8.66.332a2.298 2.298 0 0 0-1.762 1.965 2.296 2.296 0 0 0 1.222 2.338l1.206.634-1.736.91a2.297 2.297 0 0 0-1.233 2.042 2.297 2.297 0 0 0 1.235 2.042l1.737.912-1.737.91a2.3 2.3 0 0 0-1.233 2.042c0 .86.478 1.64 1.236 2.044l1.738.912-1.737.91a2.297 2.297 0 0 0-1.233 2.044c0 .86.474 1.645 1.235 2.04l1.737.913-1.204.632a2.292 2.292 0 0 0-1.221 2.337c.067.526.302.996.657 1.352.295.296.675.512 1.107.615 4.07.97 6.985 1.084 8.66.34l9.392-6.877c2.303 3.99 6.346 7.15 11.297 9.056v.02l.429.147c.923.337 1.875.626 2.853.874l.177.047c.774.19 1.56.359 2.362.492.075.012.15.019.225.03.67.106 1.349.188 2.034.25a33.122 33.122 0 0 0 2.922.147c.726 0 1.444-.032 2.157-.08.23-.014.457-.036.687-.057.505-.044 1.003-.1 1.5-.168.23-.031.462-.061.692-.098.68-.11 1.35-.232 2.01-.382.017-.004.032-.005.047-.011.7-.16 1.38-.352 2.054-.56.065-.02.132-.032.197-.052l.993-.313v-.02c5.315-1.886 9.643-5.203 12.032-9.434l10.696 7.065.206.112c.579.258 2.34 1.043 8.252-.443a2.337 2.337 0 0 0 1.769-2.008zM142.462 191.783c-.09-.781-.46-1.436-1.053-1.878-.115-.138-.115-.62-.02-.741l.802-.601c.735-.55 1.173-1.51 1.172-2.568 0-1.06-.435-2.024-1.172-2.57l-.783-.585c-.115-.14-.116-.62-.02-.742l.802-.6c.734-.55 1.172-1.511 1.17-2.57.002-1.06-.43-2.024-1.17-2.57l-.784-.584c-.115-.138-.116-.62-.02-.741l.803-.601c.734-.548 1.172-1.51 1.17-2.568 0-1.06-.437-2.024-1.171-2.57l-.784-.585c-.115-.14-.116-.62-.02-.741l.14-.106a2.61 2.61 0 0 0 1.046-1.843c.142-1.226-.478-2.464-1.105-3.213-.807-.963-1.905-1.506-3.18-1.573-1.438-.076-2.878.499-3.607.913-1.067.293-10.58 1.748-17.278 6.03-1.374.878 1.476-.994.003.124l-.003-.124c-.002-3.412-2.5-6.233-5.757-6.784l.016-.115h-1.157l-21.135-.003c-3.802-.001-6.895 3.093-6.894 6.895-3.283-2.641-9.703-4.85-17.387-6.165-2.688-1.258-5.12-1.02-6.524.649-.65.772-1.292 2.049-1.148 3.317.089.779.458 1.434 1.053 1.877.115.139.116.62.02.742l-.802.6c-.734.55-1.172 1.512-1.172 2.572-.001 1.057.447 2.01 1.174 2.57l.78.58c.117.139.118.62.02.743l-.8.6c-.733.55-1.171 1.509-1.171 2.569-.002 1.059.445 2.017 1.173 2.573l.78.58c.117.139.118.62.02.744l-.8.599c-.734.55-1.172 1.51-1.173 2.568 0 1.06.44 2.019 1.174 2.574l.783.582c.115.138.116.62.019.74l-.14.106a2.627 2.627 0 0 0-1.046 1.845c-.14 1.225.478 2.462 1.106 3.21.09.108.18.209.278.306.764.763 1.744 1.2 2.859 1.267 1.502.09 2.938-.507 3.648-.911 1.284-.353 8.618.267 17.28-6.303 0 1.9.774 3.625 2.023 4.874a6.878 6.878 0 0 0 4.875 2.024l17.12.004h4.014a6.9 6.9 0 0 0 6.894-6.894c3.283 2.647 9.704 5.119 17.389 6.438 2.685 1.262 5.116 1.022 6.523-.65.65-.77 1.293-2.046 1.147-3.316zM88.495 125.13c0-1.238.282-1.799.639-2.508.424-.84.904-1.793.904-3.618 0-1.824-.48-2.777-.904-3.618-.357-.709-.64-1.269-.64-2.507 0-1.238.283-1.798.64-2.508.424-.84.904-1.793.904-3.618 0-1.824-.48-2.777-.903-3.618-.358-.709-.64-1.269-.64-2.507a1.236 1.236 0 0 0-1.515-1.202c-.4.094-8.936 2.155-14.092 8.488a13.433 13.433 0 0 0-2.998-4.555 13.375 13.375 0 0 0-9.52-3.943l-22.47.001H32.78a13.38 13.38 0 0 0-9.52 3.942 13.437 13.437 0 0 0-2.998 4.556c-5.156-6.333-13.692-8.395-14.091-8.488a1.237 1.237 0 0 0-1.048.234 1.237 1.237 0 0 0-.467.967c0 1.238-.283 1.8-.64 2.508-.423.841-.904 1.793-.904 3.618 0 1.824.48 2.777.904 3.618.357.71.64 1.27.64 2.507 0 1.238-.283 1.8-.64 2.508-.423.841-.903 1.793-.904 3.618 0 1.824.48 2.777.904 3.618.357.71.64 1.27.64 2.507a1.235 1.235 0 0 0 1.515 1.202c.399-.094 8.936-2.155 14.092-8.488a13.433 13.433 0 0 0 2.998 4.555 13.37 13.37 0 0 0 9.519 3.943H60.37c5.673 0 10.535-3.529 12.513-8.507.43.53.883 1.03 1.354 1.502 5.17 5.17 12.377 6.91 12.742 6.994a1.233 1.233 0 0 0 1.515-1.2zM267.075 92.999c-7.159 0-13.027 5.634-13.401 12.702-7.153-8.031-18.293-11.253-18.818-11.401a1.314 1.314 0 0 0-1.671 1.263c0 1.853-.44 2.727-.95 3.738-.577 1.145-1.231 2.444-1.231 4.92 0 2.477.654 3.776 1.231 4.921.51 1.012.95 1.885.95 3.737 0 1.853-.44 2.727-.95 3.739-.577 1.145-1.231 2.444-1.231 4.919 0 2.478.654 3.776 1.231 4.922.51 1.011.95 1.885.95 3.737a1.313 1.313 0 0 0 1.671 1.265c.525-.149 11.665-3.372 18.818-11.403a13.317 13.317 0 0 0 3.911 8.771 13.334 13.334 0 0 0 9.49 3.932h12.919c7.16 0 13.029-5.636 13.402-12.705.375.422.761.833 1.157 1.229 7.135 7.136 17.162 10.035 17.659 10.176a1.316 1.316 0 0 0 1.672-1.265c0-1.852.44-2.726.95-3.737.577-1.146 1.231-2.444 1.231-4.922 0-2.475-.654-3.774-1.231-4.919-.51-1.012-.95-1.886-.95-3.739 0-1.852.44-2.725.95-3.737.577-1.145 1.231-2.444 1.231-4.921 0-2.476-.654-3.775-1.231-4.92-.51-1.011-.95-1.885-.95-3.738a1.313 1.313 0 0 0-1.672-1.265c-.525.15-11.665 3.372-18.817 11.404a13.327 13.327 0 0 0-3.911-8.772 13.334 13.334 0 0 0-9.49-3.931h-12.919zM260.064 188.8c0-1.712-.756-2.753-1.308-3.512-.459-.633-.737-1.014-.737-1.747 0-.765.31-1.204.778-1.869.564-.8 1.267-1.798 1.267-3.388 0-1.593-.707-2.609-1.274-3.425-.506-.729-.77-1.14-.77-1.829 0-.689.264-1.1.77-1.829.567-.816 1.274-1.833 1.274-3.426a1.46 1.46 0 0 0-2.19-1.267l-10.762 6.194a17.703 17.703 0 0 0-4.317-6.984 17.662 17.662 0 0 0-12.57-5.208h-23.776c-7.868 0-14.558 5.137-16.893 12.233l-10.9-6.238a1.462 1.462 0 0 0-2.189 1.26v.013c0 1.711.755 2.751 1.307 3.511.46.633.737 1.015.737 1.746 0 .767-.309 1.205-.777 1.87-.565.8-1.268 1.797-1.268 3.387 0 1.594.707 2.611 1.275 3.427.506.728.77 1.141.77 1.828 0 .69-.264 1.101-.77 1.83-.568.816-1.274 1.832-1.275 3.426a1.464 1.464 0 0 0 2.193 1.266l10.877-6.273a17.712 17.712 0 0 0 4.341 7.064 17.67 17.67 0 0 0 12.572 5.208h23.775c4.75 0 9.214-1.85 12.571-5.207a17.705 17.705 0 0 0 4.306-6.955l10.775 6.166a1.462 1.462 0 0 0 2.188-1.273zM144.946 54.689l.007-11.107.007-11.108c0-.136-.068-.34-.068-.474a3.578 3.578 0 0 0-.609-.745c-.203-.067-.338-.203-.474-.203h-.406c-.136 0-.339.068-.406.136l-2.914 1.695-14.329 8.164v-3.45c.002-2.71-.706-5.246-2.602-7.141-1.895-1.895-4.4-2.91-7.042-2.976l-30.342.154c-5.554.004-10.027 4.477-9.963 9.963l-.002 3.115-16.926-9.877c-.474-.203-1.015-.203-1.422.068-.406.27-.678.678-.678 1.22L56.77 43.23l-.007 11.106c-.001.406.203.745.474 1.016.473.473 1.218.541 1.76.27l16.939-9.9-.002 3.116c-.002 2.71 1.08 5.146 2.975 7.042 1.895 1.895 4.217 2.321 6.859 2.388h30.638c5.554-.004 9.412-3.944 9.348-9.43V46.07l17.295 10.11c.27.134.338.067.406.134.473.068.812 0 1.084-.136.203-.474.474-1.016.407-1.49z"/>
        <path d="M267.075 92.999c-7.159 0-13.027 5.634-13.401 12.702-7.153-8.031-18.293-11.253-18.818-11.401a1.314 1.314 0 0 0-1.671 1.263c0 1.853-.44 2.727-.95 3.738-.577 1.145-1.231 2.444-1.231 4.92 0 2.477.654 3.776 1.231 4.921.51 1.012.95 1.885.95 3.737 0 1.853-.44 2.727-.95 3.739-.577 1.145-1.231 2.444-1.231 4.919 0 2.478.654 3.776 1.231 4.922.51 1.011.95 1.885.95 3.737a1.313 1.313 0 0 0 1.671 1.265c.525-.149 11.665-3.372 18.818-11.403a13.317 13.317 0 0 0 3.911 8.771 13.334 13.334 0 0 0 9.49 3.932h12.919c7.16 0 13.029-5.636 13.402-12.705.375.422.761.833 1.157 1.229 7.135 7.136 17.162 10.035 17.659 10.176a1.316 1.316 0 0 0 1.672-1.265c0-1.852.44-2.726.95-3.737.577-1.146 1.231-2.444 1.231-4.922 0-2.475-.654-3.774-1.231-4.919-.51-1.012-.95-1.886-.95-3.739 0-1.852.44-2.725.95-3.737.577-1.145 1.231-2.444 1.231-4.921 0-2.476-.654-3.775-1.231-4.92-.51-1.011-.95-1.885-.95-3.738a1.313 1.313 0 0 0-1.672-1.265c-.525.15-11.665 3.372-18.817 11.404a13.327 13.327 0 0 0-3.911-8.772 13.334 13.334 0 0 0-9.49-3.931h-12.919z"/>
        <path stroke="#9A9A9A" stroke-linecap="round" stroke-linejoin="round" stroke-width="4" d="M313.884 130.196c0-1.852.44-2.726.95-3.737.577-1.146 1.231-2.444 1.231-4.921 0-2.477-.654-3.775-1.231-4.92-.51-1.012-.95-1.886-.95-3.738 0-1.853.44-2.726.95-3.738.577-1.145 1.231-2.444 1.231-4.921 0-2.476-.654-3.775-1.231-4.92-.51-1.011-.95-1.885-.95-3.738a1.311 1.311 0 0 0-1.671-1.264c-.526.149-11.666 3.372-18.817 11.403a13.331 13.331 0 0 0-3.911-8.773 13.345 13.345 0 0 0-9.492-3.931h-12.918c-7.16 0-13.026 5.636-13.401 12.703-7.154-8.03-18.293-11.253-18.817-11.401a1.31 1.31 0 0 0-1.672 1.263c0 1.853-.44 2.727-.95 3.738-.578 1.145-1.232 2.444-1.232 4.92 0 2.477.655 3.776 1.233 4.92.508 1.013.95 1.886.95 3.739 0 1.852-.442 2.726-.95 3.738-.578 1.145-1.232 2.443-1.232 4.92s.654 3.775 1.232 4.92c.508 1.012.95 1.886.95 3.738a1.31 1.31 0 0 0 .52 1.048 1.32 1.32 0 0 0 1.15.217c.525-.15 11.666-3.371 18.817-11.403a13.327 13.327 0 0 0 3.911 8.772 13.337 13.337 0 0 0 9.49 3.93h12.92c7.16 0 13.028-5.635 13.402-12.704.375.422.76.833 1.157 1.229 7.135 7.136 17.161 10.035 17.66 10.176a1.311 1.311 0 0 0 1.67-1.265z"/>
        <path stroke="#9A9A9A" stroke-width="4" d="M20 107v10M73 108v10M83 167v24M117 167v24M190 171v14M247 171v14M254 104v17M293 103v18M240 35v16M194 36v16M75.986 38.099v9.162M126 39v9.163M101.178 27.568L85.506 57.525M61.672 99L46 126M288.672 94.32L273 133.87M275.672 93L260 132.549M46.672 99L31 126M150.672 97L135 126.957M181.672 97L166 126.957M217.672 160L202 194.623M233.672 161.156L218 195.778M101.672 160L86 195.778M114.672 161.194L99 196.973M236.672 30.334L222 61M213.672 25.334L199 56"/>
    </g>
</svg>
