<svg xmlns="http://www.w3.org/2000/svg" width="320" height="220" viewBox="0 0 320 220">
    <path fill="#9D9D9D" fill-rule="nonzero" stroke="#FFF" stroke-width="2" d="M222.932 47.067C206.122 30.257 183.772 21 160 21c-23.773 0-46.123 9.258-62.932 26.067C80.258 63.877 71 86.227 71 110c0 23.772 9.258 46.122 26.068 62.932C113.878 189.742 136.228 199 160 199a88.56 88.56 0 0 0 34.059-6.775 88.566 88.566 0 0 0 28.873-19.293 3.477 3.477 0 0 0-4.916-4.917c-15.497 15.497-36.101 24.032-58.016 24.032-13.692 0-26.608-3.376-37.968-9.332l6.906-11.962.003-.004a3.476 3.476 0 0 0-1.272-4.75c-.003 0-.006-.002-.008-.004-18.931-10.933-31.045-30.828-32.222-52.518h13.803a3.477 3.477 0 0 0 0-6.953H95.438a64.6 64.6 0 0 1 2.102-13.26 3.477 3.477 0 0 0-6.716-1.8A71.62 71.62 0 0 0 88.384 110c0 24.342 12.498 47.098 32.84 60.209l-5.209 9.022C93.15 164.653 77.953 139.068 77.953 110c0-13.692 3.376-26.608 9.332-37.968L99.25 78.94A3.475 3.475 0 0 0 104 77.668l.003-.005a64.683 64.683 0 0 1 10.273-13.388 3.477 3.477 0 1 0-4.916-4.917 71.615 71.615 0 0 0-9.562 11.869l-9.029-5.213c14.579-22.864 40.163-38.06 69.232-38.06a81.538 81.538 0 0 1 37.968 9.33L191.06 49.25a3.476 3.476 0 1 0 6.021 3.476l6.904-11.957a82.691 82.691 0 0 1 25.246 25.245l-9.031 5.214a71.602 71.602 0 0 0-9.559-11.87 3.477 3.477 0 0 0-4.916 4.917 64.748 64.748 0 0 1 16.736 28.989 3.478 3.478 0 1 0 6.716-1.8 71.6 71.6 0 0 0-5.5-14.214l9.038-5.219c5.956 11.36 9.332 24.277 9.332 37.969a82.168 82.168 0 0 1-9.32 37.973l-9.048-5.224A71.175 71.175 0 0 0 231.618 110a3.476 3.476 0 0 0-3.477-3.476h-14.02a54.231 54.231 0 0 0-.31-3.295 3.477 3.477 0 0 0-6.899.868c.245 1.95.37 3.935.37 5.903 0 7.159-1.638 14.19-4.713 20.562l-9.06-5.231A36.908 36.908 0 0 0 196.85 110a3.477 3.477 0 0 0-3.476-3.477h-17.366l-.016-.001a3.477 3.477 0 0 0-3.477 3.476c0 6.902-5.615 12.516-12.516 12.516-6.902 0-12.516-5.614-12.516-12.516S153.098 97.483 160 97.483a3.476 3.476 0 1 0 0-6.953c-9.549 0-17.508 6.912-19.153 15.994H130.31c1.729-14.854 14.38-26.423 29.69-26.423 10.647 0 20.57 5.728 25.893 14.949a3.476 3.476 0 1 0 6.022-3.477 36.786 36.786 0 0 0-10.568-11.593l5.242-9.08a47.252 47.252 0 0 1 14.358 15.459 3.476 3.476 0 1 0 6.021-3.477 54.19 54.19 0 0 0-19.85-19.85l-.002-.001a54.293 54.293 0 0 0-9.847-4.443 3.477 3.477 0 0 0-2.214 6.59c1.892.636 3.731 1.39 5.51 2.25l-5.24 9.075A36.775 36.775 0 0 0 160 73.148c-12.37 0-23.336 6.126-30.023 15.504l-9.071-5.238a47.293 47.293 0 0 1 24.081-18.25 3.477 3.477 0 0 0-2.207-6.592 54.219 54.219 0 0 0-6.83 2.82l-5.22-9.043a64.78 64.78 0 0 1 25.793-6.911v13.804a3.476 3.476 0 1 0 6.953 0V45.437c4.479.242 8.925.94 13.26 2.102a3.477 3.477 0 0 0 1.8-6.716A71.628 71.628 0 0 0 160 38.383a71.713 71.713 0 0 0-35.81 9.595 3.476 3.476 0 0 0-1.272 4.749l.005.007 7.006 12.133a54.254 54.254 0 0 0-16.863 17.962c-.01.018-.023.034-.034.052-.013.023-.022.046-.035.068A54.096 54.096 0 0 0 110 88.992a3.476 3.476 0 1 0 6.41 2.694c.32-.762.66-1.513 1.017-2.253l9.066 5.235a36.636 36.636 0 0 0-3.344 15.331c0 5.468 1.198 10.66 3.344 15.332l-9.064 5.232a47.673 47.673 0 0 1-1.309-2.955 3.476 3.476 0 1 0-6.452 2.59 54.123 54.123 0 0 0 33.305 31.293 3.478 3.478 0 0 0 2.183-6.601 47.178 47.178 0 0 1-24.256-18.302l9.078-5.24c6.687 9.377 17.653 15.503 30.023 15.503 6.46 0 12.832-1.707 18.426-4.937a3.476 3.476 0 1 0-3.477-6.022 29.928 29.928 0 0 1-11.472 3.799v-10.54c7.952-1.44 14.234-7.722 15.675-15.674h10.539a29.946 29.946 0 0 1-3.793 11.464l-.005.008a3.476 3.476 0 0 0 1.273 4.749l11.928 6.887a46.962 46.962 0 0 1-2.874 3.806 3.477 3.477 0 0 0 5.326 4.47 54.094 54.094 0 0 0 5.392-7.7c.01-.015.021-.029.03-.044l.03-.058a54.353 54.353 0 0 0 7.123-23.582h10.449c-1.129 21.203-12.52 39.726-29.286 50.685l-6.894-11.942a3.476 3.476 0 1 0-6.022 3.476l6.902 11.955a64.195 64.195 0 0 1-25.793 6.919v-10.45a54.248 54.248 0 0 0 6.79-.867 3.476 3.476 0 1 0-1.317-6.827 47.358 47.358 0 0 1-8.95.855 3.476 3.476 0 0 0-3.476 3.477v13.805a64.682 64.682 0 0 1-13.26-2.103 3.476 3.476 0 1 0-1.8 6.716A71.643 71.643 0 0 0 160 181.617c12.958 0 25.124-3.459 35.621-9.503.063-.031.127-.057.188-.092.108-.063.21-.13.31-.202a72.166 72.166 0 0 0 24.073-23.055l12.122 7 .013.008c.126.073.256.135.388.19.03.013.06.023.09.035.104.041.21.077.318.108.032.008.062.018.094.025.271.069.545.104.82.106l.025.002c.017 0 .035-.003.052-.004.115-.001.23-.009.344-.022l.089-.01c.274-.039.543-.11.8-.212l.073-.03a3.413 3.413 0 0 0 .388-.193c.24-.139.465-.307.668-.504.023-.021.044-.044.066-.066.08-.08.154-.166.226-.255l.065-.082c.086-.115.17-.234.243-.361A89.121 89.121 0 0 0 249 110c0-23.773-9.258-46.123-26.068-62.933zm-66.409 92.622c-13.712-1.595-24.618-12.501-26.214-26.213h10.54c1.44 7.952 7.722 14.235 15.674 15.675v10.538z"/>
</svg>
