<svg xmlns="http://www.w3.org/2000/svg" width="320" height="220" viewBox="0 0 320 220">
    <g fill="none" fill-rule="evenodd" stroke="#9D9D9D" stroke-width="4" transform="translate(65 15)">
        <rect width="11" height="11" x="2" y="2" rx="3"/>
        <rect width="11" height="11" x="152" y="2" rx="3"/>
        <rect width="11" height="11" x="102" y="2" rx="3"/>
        <rect width="11" height="11" x="127" y="2" rx="3"/>
        <rect width="11" height="11" x="77" y="2" rx="3"/>
        <rect width="11" height="11" x="27" y="2" rx="3"/>
        <rect width="11" height="11" x="177" y="2" rx="3"/>
        <rect width="11" height="11" x="52" y="2" rx="3"/>
        <rect width="11" height="11" x="100" y="33" rx="3"/>
        <rect width="11" height="11" x="127" y="27" rx="3"/>
        <rect width="11" height="11" x="2" y="27" rx="3"/>
        <rect width="11" height="11" x="152" y="27" rx="3"/>
        <rect width="11" height="11" x="2" y="52" rx="3"/>
        <rect width="11" height="11" x="152" y="52" rx="3"/>
        <rect width="11" height="11" x="2" y="77" rx="3"/>
        <rect width="11" height="11" x="146" y="77" rx="3"/>
        <rect width="11" height="11" x="100" y="56" rx="3"/>
        <rect width="11" height="11" x="100" y="77" rx="3"/>
        <rect width="11" height="11" x="123" y="56" rx="3"/>
        <rect width="11" height="11" x="123" y="77" rx="3"/>
        <rect width="11" height="11" x="27" y="27" rx="3"/>
        <rect width="11" height="11" x="177" y="27" rx="3"/>
        <rect width="11" height="11" x="52" y="27" rx="3"/>
        <rect width="11" height="11" x="79" y="33" rx="3"/>
        <rect width="11" height="11" x="79" y="56" rx="3"/>
        <rect width="11" height="11" x="79" y="77" rx="3"/>
        <rect width="11" height="11" x="27" y="52" rx="3"/>
        <rect width="11" height="11" x="177" y="52" rx="3"/>
        <rect width="11" height="11" x="33" y="77" rx="3"/>
        <rect width="11" height="11" x="177" y="77" rx="3"/>
        <rect width="11" height="11" x="56" y="56" rx="3"/>
        <rect width="11" height="11" x="56" y="77" rx="3"/>
        <rect width="11" height="11" x="100" y="100" rx="3"/>
        <rect width="11" height="11" x="123" y="100" rx="3"/>
        <rect width="11" height="11" x="2" y="102" rx="3"/>
        <rect width="11" height="11" x="146" y="100" rx="3"/>
        <rect width="11" height="11" x="2" y="127" rx="3"/>
        <rect width="11" height="11" x="152" y="127" rx="3"/>
        <rect width="11" height="11" x="2" y="152" rx="3"/>
        <rect width="11" height="11" x="152" y="152" rx="3"/>
        <rect width="11" height="11" x="100" y="123" rx="3"/>
        <rect width="11" height="11" x="100" y="146" rx="3"/>
        <rect width="11" height="11" x="123" y="123" rx="3"/>
        <rect width="11" height="11" x="127" y="152" rx="3"/>
        <rect width="11" height="11" x="33" y="100" rx="3"/>
        <rect width="11" height="11" x="177" y="102" rx="3"/>
        <rect width="11" height="11" x="56" y="100" rx="3"/>
        <rect width="11" height="11" x="79" y="100" rx="3"/>
        <rect width="11" height="11" x="79" y="123" rx="3"/>
        <rect width="11" height="11" x="79" y="146" rx="3"/>
        <rect width="11" height="11" x="27" y="127" rx="3"/>
        <rect width="11" height="11" x="177" y="127" rx="3"/>
        <rect width="11" height="11" x="27" y="152" rx="3"/>
        <rect width="11" height="11" x="177" y="152" rx="3"/>
        <rect width="11" height="11" x="56" y="123" rx="3"/>
        <rect width="11" height="11" x="52" y="152" rx="3"/>
        <rect width="11" height="11" x="102" y="177" rx="3"/>
        <rect width="11" height="11" x="127" y="177" rx="3"/>
        <rect width="11" height="11" x="2" y="177" rx="3"/>
        <rect width="11" height="11" x="152" y="177" rx="3"/>
        <rect width="11" height="11" x="27" y="177" rx="3"/>
        <rect width="11" height="11" x="177" y="177" rx="3"/>
        <rect width="11" height="11" x="52" y="177" rx="3"/>
        <rect width="11" height="11" x="77" y="177" rx="3"/>
    </g>
</svg>
