<svg xmlns="http://www.w3.org/2000/svg" width="320" height="220" viewBox="0 0 320 220">
    <g fill="#9D9D9D" fill-rule="nonzero" stroke="#FFF">
        <path d="M177.352 29.513C173.123 23.283 167.149 20 160 20c-7.406 0-14.404 3.71-18.57 9.765-18.906 4.098-36.094 14.529-48.505 29.468A86.493 86.493 0 0 0 73 114.393c0 23.133 9.05 44.882 25.482 61.24C114.914 191.991 136.762 201 160 201c23.239 0 45.086-9.01 61.518-25.367C237.95 159.275 247 137.526 247 114.393c0-41.232-29.215-76.726-69.648-84.88zM160 195.16c-44.738 0-81.135-36.232-81.135-80.769 0-38.28 27.312-71.569 64.939-79.157a3.481 3.481 0 0 0 .118-.026l.005-.001c.002 0 .004 0 .006-.002.002 0 .004.002.005-.001l.006-.001c.002 0 .005 0 .005-.002l.023-.006.022-.006h.005a.01.01 0 0 1 .004-.002c.002 0 .004 0 .004-.002a2.92 2.92 0 0 0 1.732-1.298v-.001l.002-.003.001-.003.001-.002.003-.005c3.039-5.031 8.367-8.035 14.254-8.035 4.163 0 7.697 1.52 10.55 4.522-5.614 2.05-9.635 7.426-9.635 13.708a14.567 14.567 0 0 0 7.357 12.663A16.522 16.522 0 0 1 160 58.925c-4.614 0-8.904-1.844-12.08-5.19a2.943 2.943 0 0 0-2.82-.835c-13.619 3.27-25.967 11.116-34.77 22.089-8.944 11.149-13.87 25.143-13.87 39.403 0 34.878 28.504 63.253 63.54 63.253s63.54-28.375 63.54-63.253c0-14.26-4.926-28.255-13.869-39.405C201.02 64.2 188.941 56.44 175.6 53.072a2.931 2.931 0 0 0-1.002-.3c-4.457-.49-7.817-4.232-7.817-8.703 0-4.813 3.933-8.74 8.767-8.756.22-.001.432-.028.637-.074 37.707 7.603 64.95 40.7 64.95 79.153 0 44.537-36.396 80.77-81.134 80.77zm57.674-80.769c0 31.659-25.872 57.414-57.674 57.414s-57.674-25.755-57.674-57.414c0-26.085 17.432-48.647 42.59-55.418 4.138 3.746 9.43 5.79 15.084 5.79s10.948-2.046 15.087-5.794c25.157 6.77 42.587 29.335 42.587 55.422z"/>
        <path d="M154 39c1.654 0 3-1.346 3-3s-1.346-3-3-3-3 1.346-3 3 1.346 3 3 3z"/>
    </g>
</svg>
