<svg xmlns="http://www.w3.org/2000/svg" width="320" height="220" viewBox="0 0 320 220">
    <g fill="none" fill-rule="evenodd" stroke="#9A9A9A" stroke-linecap="round" stroke-linejoin="round" stroke-width="5">
        <path d="M156.5 123c-9.112 0-16.5-7.388-16.5-16.5S147.388 90 156.5 90s16.5 7.388 16.5 16.5"/>
        <path d="M156.5 151c-25.129 0-45.5-20.147-45.5-45s20.371-45 45.5-45S202 81.147 202 106"/>
        <path d="M156.5 177c-39.489 0-71.5-31.787-71.5-71s32.011-71 71.5-71S228 66.787 228 106"/>
        <path d="M218.898 157.736l19.66 19.414-12.553 12.397-18.923-19.405-9.88 16.26-25.699-63.881 63.92 25.424-16.525 9.791z"/>
    </g>
</svg>
