<svg xmlns="http://www.w3.org/2000/svg" width="320" height="220" viewBox="0 0 320 220">
    <g fill="#9D9D9D" fill-rule="evenodd" stroke="#FFF" stroke-width="2">
        <path d="M160.264 136.225c-13.56 0-26.773-8.198-37.204-23.083-10.149-14.485-15.97-32.99-15.97-50.77 0-16.899 5.374-31.068 15.541-40.977 9.461-9.222 22.826-14.3 37.633-14.3 14.807 0 28.172 5.078 37.633 14.3 10.167 9.909 15.541 24.078 15.541 40.976 0 17.782-5.82 36.286-15.97 50.77-10.43 14.886-23.643 23.084-37.204 23.084zm4.018 15.136h-8.035v-4.02a4.024 4.024 0 0 1 4.017-4.021 4.024 4.024 0 0 1 4.018 4.02v4.02zm17.532-13.902a54.914 54.914 0 0 0 6.769-4.51c1.694-1.454 3.112-2.4 5.726-5.042 3.159-3.123 6.16-6.691 8.964-10.692 10.966-15.65 17.255-35.639 17.255-54.843 0-4.522-.356-8.874-1.05-13.036-.369-2.036-.369-3.455-1.521-6.943-2.814-10.222-7.904-19.055-15.113-26.081C192.05 5.792 176.93 0 160.264 0c-16.665 0-31.787 5.793-42.58 16.312C106.115 27.588 100 43.515 100 62.372c0 19.204 6.29 39.194 17.255 54.843 9.348 13.342 20.883 21.926 33.2 24.916a11.052 11.052 0 0 0-1.299 5.209v7.568a3.546 3.546 0 0 0 3.545 3.547h3.807c-.288 2.182-.843 3.662-1.454 5.293-.992 2.646-2.117 5.645-2.117 11.332 0 5.69 1.124 8.69 2.117 11.338.893 2.385 1.665 4.445 1.665 8.848 0 4.404-.772 6.463-1.665 8.848-.993 2.648-2.117 5.649-2.117 11.338a3.546 3.546 0 0 0 3.545 3.548 3.546 3.546 0 0 0 3.545-3.548c0-4.403.772-6.462 1.665-8.847.992-2.648 2.117-5.649 2.117-11.338 0-5.69-1.125-8.691-2.117-11.339-.893-2.385-1.665-4.444-1.665-8.847 0-4.4.772-6.458 1.665-8.84.762-2.033 1.6-4.278 1.949-7.785h4.185a3.546 3.546 0 0 0 3.545-3.547v-7.568c0-1.881-.471-3.654-1.299-5.209a44.077 44.077 0 0 0 5.31-1.652 36.998 36.998 0 0 0 6.432-3.021z"/>
        <path d="M173.882 24.139c2.43.784 4.73 1.787 6.836 2.981a3.562 3.562 0 0 0 1.76.465 3.533 3.533 0 0 0 3.045-1.713c.974-1.643.402-3.746-1.278-4.699a43.845 43.845 0 0 0-8.16-3.563 3.583 3.583 0 0 0-1.102-.173c-1.476 0-2.851.915-3.339 2.36-.607 1.804.395 3.748 2.238 4.342zM191.65 30.718a3.563 3.563 0 0 0-.71 4.968c4.997 6.71 7.531 15.602 7.531 26.428 0 5.295-.611 10.706-1.817 16.084-.429 1.912.765 3.812 2.667 4.243a3.536 3.536 0 0 0 4.22-2.682c1.32-5.89 1.99-11.826 1.99-17.645 0-12.393-3.009-22.717-8.94-30.683a3.518 3.518 0 0 0-4.942-.713zM121.683 83.189c-1.873.61-2.89 2.606-2.272 4.458 4.966 14.874 13.71 27.38 23.988 34.308a3.588 3.588 0 0 0 2.01.614c1.14 0 2.262-.539 2.953-1.54a3.505 3.505 0 0 0-.938-4.906c-8.875-5.982-16.812-17.455-21.23-30.689-.495-1.483-1.892-2.424-3.391-2.424-.371 0-.748.058-1.12.179z"/>
    </g>
</svg>
