<svg xmlns="http://www.w3.org/2000/svg" width="320" height="220" viewBox="0 0 320 220">
    <g fill="#9D9D9D" fill-rule="nonzero" stroke="#FFF" stroke-width="2">
        <path d="M248.36 86.5h-2.44c-2.378-12.183-14.57-33.635-19.968-42.721a9.769 9.769 0 0 0 4.194-8.034c0-5.373-4.328-9.745-9.647-9.745s-9.646 4.372-9.646 9.745a9.768 9.768 0 0 0 4.194 8.034c-5.397 9.086-17.59 30.538-19.966 42.721h-2.44c-2.01 0-3.641 1.647-3.641 3.679C189 107.725 203.13 122 220.5 122c17.37 0 31.5-14.275 31.5-31.821 0-2.032-1.63-3.679-3.64-3.679zM220.5 33.356c1.303 0 2.364 1.072 2.364 2.39 0 1.316-1.06 2.388-2.364 2.388-1.304 0-2.365-1.072-2.365-2.389 0-1.317 1.06-2.389 2.365-2.389zm-.006 15.544c6.161 10.505 15.676 28.005 18.016 37.6H202.5c2.21-8.984 10.77-25.337 17.994-37.6zm.006 65.744c-12.117 0-22.184-9.036-23.945-20.787h47.89c-1.762 11.751-11.828 20.787-23.945 20.787z"/>
        <path d="M192.343 173.962h-9.668v-9.296a3.659 3.659 0 0 0-3.657-3.66h-9.288V58.762a13.856 13.856 0 0 0 4.112-9.174l15.463-3.33a3.66 3.66 0 0 0-1.539-7.157l-15.5 3.339C169.942 38.02 165.31 35 159.983 35c-7.377 0-13.425 5.79-13.85 13.069l-38.668 8.328a9.678 9.678 0 0 0-7.824-3.988c-5.343 0-9.69 4.35-9.69 9.698a9.695 9.695 0 0 0 4.213 7.995c-5.421 9.041-17.667 30.39-20.055 42.514h-2.45a3.659 3.659 0 0 0-3.658 3.66c0 17.46 14.193 31.667 31.64 31.667 17.445 0 31.638-14.206 31.638-31.667a3.658 3.658 0 0 0-3.657-3.66h-2.45c-2.388-12.125-14.634-33.473-20.055-42.514a9.71 9.71 0 0 0 4.11-6.596l38.418-8.274a13.974 13.974 0 0 0 2.59 3.53v102.245h-9.287a3.658 3.658 0 0 0-3.657 3.66v9.296h-9.668a3.658 3.658 0 0 0-3.657 3.66v13.717a3.658 3.658 0 0 0 3.657 3.66h64.721a3.659 3.659 0 0 0 3.657-3.66v-13.718a3.659 3.659 0 0 0-3.657-3.66zM99.639 59.729a2.38 2.38 0 0 1 2.375 2.378 2.379 2.379 0 0 1-2.375 2.376 2.379 2.379 0 0 1-2.375-2.376 2.38 2.38 0 0 1 2.375-2.378zm0 80.893c-12.17 0-22.282-8.992-24.05-20.687h48.101c-1.769 11.695-11.88 20.687-24.05 20.687zm18.09-28.007H81.56c2.22-8.94 10.819-25.214 18.074-37.418 6.188 10.454 15.745 27.869 18.095 37.418zm42.253-70.295c3.62 0 6.563 2.946 6.563 6.568 0 3.622-2.944 6.569-6.563 6.569-3.618 0-6.562-2.947-6.562-6.569s2.943-6.568 6.562-6.568zm2.435 20.24v98.447h-4.869V62.559c.791.141 1.604.219 2.435.219.83 0 1.643-.078 2.434-.219zm-17.813 105.767h30.757v5.635h-30.757v-5.635zm44.082 19.352h-57.407v-6.397h57.407v6.397zM206.917 39.929c-.425-2.002-2.375-3.276-4.353-2.845l-2.67.581c-1.978.431-3.237 2.404-2.811 4.406A3.676 3.676 0 0 0 200.662 45c.255 0 .514-.027.774-.084l2.67-.581c1.978-.43 3.237-2.404 2.811-4.406z"/>
    </g>
</svg>
