<svg xmlns="http://www.w3.org/2000/svg" width="320" height="220" viewBox="0 0 320 220">
    <path fill="#9D9D9D" fill-rule="nonzero" stroke="#FFF" stroke-width="4" d="M244.583 103.953C221.387 40.722 162.43 40 159.53 40c-78.772 2.885-86.021 49.768-86.262 51.691v.24c-1.209 15.628 1.691 27.409 8.698 34.862 5.316 5.77 13.048 8.896 22.472 8.896 1.208 0 2.174 0 3.383-.24.241 6.25 2.174 11.3 5.799 15.387 5.316 6.01 14.256 9.136 26.096 9.136 6.524 0 12.807-.962 16.914-1.683l14.498 17.31c12.082 11.06 21.747 2.404 24.888-1.923 4.108-5.77 0-15.387 0-15.387 11.115-.962 20.78-2.885 28.513-6.252 18.364-7.693 27.063-28.61 20.055-48.084zm-10.148 26.446c-5.075.24-9.666-1.683-12.807-5.77-3.383-4.328-4.35-9.857-2.174-15.146.966-2.405-.242-5.29-2.658-6.251-2.417-.962-5.316.24-6.283 2.644a25.628 25.628 0 0 0-1.45 13.464s-12.323-1.443-16.914 8.174c-2.175 4.809-1.692 10.098 1.45 14.426 2.174 2.885 5.799 1.442 6.765.961 2.175-1.683 2.417-4.568.967-6.731-1.45-1.924-1.692-6.973 3.141-6.732l8.216-.24c.483.48 4.59 6.972 14.497 10.338-1.933 1.442-4.107 2.885-6.282 3.847-8.216 3.365-19.089 5.77-32.137 5.77-5.074 0-4.833 4.808-4.591 6.25.725 2.405 1.933 5.29 3.625 8.175 3.866 6.732-4.35 12.262-9.182 6.252l-16.431-19.475c-.967-1.202-2.175-1.683-3.625-1.683-.241 0-15.223 4.328-22.713 2.164l.966-4.087c.966-4.328 4.108-7.453 8.216-8.655 4.108-1.202 8.457 0 11.598 2.885 1.933 1.923 4.832 1.923 6.766 0 1.933-1.924 1.933-4.809 0-6.732-2.175-2.164-4.833-3.847-7.733-5.05 0 0 1.45-13.463-9.423-18.03-5.316-2.405-11.599-1.684-16.19 1.682-2.174 1.683-2.658 4.568-.966 6.732 1.692 2.164 4.591 2.645 6.766.961 1.933-1.442 4.107-1.442 6.282-.72 4.591 1.682 3.625 8.174 3.625 8.174-1.208.24-14.257.961-18.606 16.348l-.966 4.328c-2.175-.961-4.35-1.923-5.8-3.847-5.557-7.453-3.14-14.666-3.14-14.906 2.899-5.049 2.416-11.06-1.45-15.387-3.625-4.328-9.666-6.01-14.982-4.087-2.416.962-3.866 3.606-2.899 6.01.966 2.405 3.625 3.366 6.04 2.885 7.25-1.202 4.592 6.492 4.592 6.732-3.383.962-10.874 2.885-19.572-5.53-2.417-2.404-4.108-6.01-5.075-10.097 3.142.24 8.216-.962 11.357-3.126 5.074-3.366 8.215-9.136 8.215-15.387 0-2.645-2.174-4.809-4.832-4.809s-4.833 2.164-4.833 4.809c0 2.885-1.45 5.53-3.866 7.212-2.174 1.443-4.832 1.684-7.249 1.203 0-2.405 0-4.809.242-7.453.241-1.443 1.933-10.339 10.873-19.956 0 0 10.632-1.923 17.156 7.694 3.141 4.808 3.383 10.82.725 15.868a4.807 4.807 0 0 0 2.175 6.491c.724.24 4.59 1.202 6.524-2.163.966-1.684 1.45-3.607 1.933-5.53 7.974 3.366 19.089-.24 22.471-4.328 1.692-1.923 1.45-5.049-.483-6.731-1.933-1.684-5.074-1.443-6.766.48-2.174 2.405-5.074 3.607-7.973 2.885-9.666-1.683-9.182-10.338-10.39-12.261-3.383-5.53-8.941-9.617-14.982-11.3 7.733-5.29 18.606-9.857 33.104-12.502v4.087c0 11.54 9.423 20.677 20.78 20.677 2.658 0 4.833-2.164 4.833-4.809 0-2.644-2.175-4.808-4.833-4.808a11.058 11.058 0 0 1-11.115-11.06v-5.53c4.108-.481 8.216-.721 12.807-.962.966 0 13.773.24 28.754 6.732 0 .24 4.833 10.579-1.45 19.474-3.866 5.53-10.148 8.656-16.914 8.175-2.658-.24-5.074 1.923-5.074 4.568-.242 2.645 1.933 5.049 4.59 5.049.726 0 14.015 0 21.023-7.213 0 0 4.832 4.809 2.9 9.858-1.21 3.365-3.384 6.01-7.008 6.972-2.658.721-4.108 3.366-3.383 6.01.483 2.164 2.658 3.607 4.59 3.607.484 0 12.324-2.645 14.982-13.944 2.658-12.262-6.282-19.956-6.282-19.956 2.899-5.049 3.866-10.819 3.382-16.589 13.29 8.415 27.063 22.119 35.52 45.2 2.9 8.173 2.417 16.588-.966 23.32z"/>
</svg>
