<svg xmlns="http://www.w3.org/2000/svg" width="320" height="220" viewBox="0 0 320 220">
    <g fill="#9A9A9A" fill-rule="nonzero" stroke="#FFF" stroke-width="2">
        <path d="M240.976 77.38h-4.133a77.968 77.968 0 0 0-.363-4.47 4.024 4.024 0 1 0-7.999.885c.132 1.193.23 2.39.301 3.585h-8.062C218.642 45.943 192.429 21 160.5 21s-58.142 24.943-60.22 56.38h-8.062c.07-1.194.169-2.392.3-3.584a4.025 4.025 0 0 0-7.999-.885 78.673 78.673 0 0 0-.362 4.47h-4.133A4.025 4.025 0 0 0 76 81.407a4.025 4.025 0 0 0 4.024 4.027h4.13c1.916 36.819 29.962 66.827 65.884 71.768v33.743H118.51a4.026 4.026 0 0 0-4.024 4.027A4.026 4.026 0 0 0 118.51 199h82.372a4.026 4.026 0 0 0 4.024-4.027 4.026 4.026 0 0 0-4.024-4.027h-29.92v-33.743c35.923-4.941 63.969-34.95 65.886-71.769h4.13A4.025 4.025 0 0 0 245 81.407a4.025 4.025 0 0 0-4.024-4.027zM160.5 29.054c28.843 0 52.31 23.485 52.31 52.353 0 28.868-23.467 52.353-52.31 52.353-28.843 0-52.31-23.485-52.31-52.353 0-28.868 23.467-52.353 52.31-52.353zm2.414 161.892h-4.828V157.88c.802.026 1.606.042 2.414.042s1.612-.017 2.414-.042v33.065zm3.62-41.347l-.012.001a68.776 68.776 0 0 1-6.022.269c-2.03 0-4.037-.094-6.022-.269h-.012c-33.581-2.953-60.276-30.29-62.25-64.166h8.064c2.078 31.438 28.291 56.38 60.22 56.38s58.142-24.942 60.22-56.38h8.063c-1.973 33.876-28.668 61.213-62.25 64.165z"/>
        <path d="M153.188 81.812A4.045 4.045 0 0 0 156.057 83a4.045 4.045 0 0 0 2.868-1.188l28.887-28.887a4.057 4.057 0 0 0-5.737-5.737l-28.887 28.886a4.057 4.057 0 0 0 0 5.738zM141.946 86.21l-16.735 16.735a4.133 4.133 0 0 0 5.843 5.845l16.736-16.735a4.133 4.133 0 0 0-5.844-5.845zM167.817 38.182a4.039 4.039 0 0 0-5.71 0l-43.924 43.925a4.038 4.038 0 0 0 5.71 5.71l43.924-43.924a4.038 4.038 0 0 0 0-5.71z"/>
    </g>
</svg>
